<svg width="252.6136489868164" height="59.39042037006624" viewBox="0 0 370 86.98839364008921" class="looka-1j8o68f"><defs id="SvgjsDefs1326"></defs><g id="SvgjsG1327" featurekey="Df7oLJ-0" transform="matrix(0.1592631435593349,0,0,0.1592631435593349,0.000009720650852010187,0.000004860325426005094)" fill="#ffffff"><g xmlns="http://www.w3.org/2000/svg" transform="translate(-167.07458,-356.38484)"><path style="" d="m 472.65668,356.50608 c -51.8992,2.5489 -93.2139,45.5509 -93.2139,98.0626 0,34.1341 17.3792,63.9548 43.8796,81.4563 8.5645,5.6476 7.8607,18.5825 -1.6968,22.1821 -59.7655,22.4664 -102.4263,79.8091 -102.4263,147.5185 105.5054,32.0861 211.104,32.0861 316.7333,0 0,-67.7715 -42.6607,-124.99 -102.4261,-147.5185 -9.4955,-3.4754 -10.501,-16.416 -2.0606,-21.9395 30.969,-20.3561 49.8016,-57.7641 42.7887,-98.9112 -6.7027,-39.7194 -39.1319,-72.3826 -78.7896,-79.3956 -7.7576,-1.3728 -15.3738,-1.8183 -22.7883,-1.4547 z m -194.4281,51.5164 c -37.5554,1.8134 -67.5163,32.9101 -67.5163,71.0315 0,24.5765 12.581,46.3119 31.7582,58.9103 6.082,4.2823 5.6172,13.5772 -1.3337,16.1218 -43.3193,16.3844 -74.0622,57.8821 -74.0622,106.911 44.3743,13.4675 88.7726,19.1393 133.4573,17.0913 6.3302,-40.03 26.3446,-76.4553 55.6377,-103.6384 -9.9299,-8.875 -21.4628,-15.585 -34.0613,-20.3639 -6.7649,-2.5446 -7.4152,-11.907 -1.3332,-15.8791 22.3424,-14.7086 36.12,-41.6652 31.0309,-71.5169 -5.0269,-28.6726 -28.482,-52.4875 -57.0925,-57.5765 -5.6085,-1.0006 -11.1197,-1.3499 -16.4849,-1.0911 z m 398.4321,0 c -37.6449,1.8134 -67.5165,32.9101 -67.5165,71.0315 0,24.5765 12.6403,46.3119 31.8794,58.9103 6.0199,4.2823 5.5558,13.5772 -1.333,16.1218 -14.0882,5.2133 -26.9609,13.151 -37.6977,23.5153 27.6175,26.4383 46.398,61.6479 52.7283,100.0023 46.7946,2.8546 93.5123,-2.4565 140.245,-16.6066 0,-49.0289 -30.9851,-90.5887 -74.3043,-106.911 -6.8268,-2.5446 -7.664,-11.907 -1.3337,-15.8791 22.2802,-14.7086 35.816,-41.6652 30.7883,-71.5169 -4.8408,-28.6726 -28.2387,-52.4875 -56.8493,-57.5765 -5.632,-1.0006 -11.2287,-1.3499 -16.6065,-1.0911 z m -458.6755,291.6422 -12.0003,36.9702 -38.9103,0 31.5163,22.9096 -12.0003,36.9707 31.3946,-22.7884 31.5156,22.7884 -12.0003,-36.9707 31.3946,-22.9096 -38.9097,0 -12.0002,-36.9702 z m 526.0709,0 -12.1214,36.9702 -38.9102,0 31.5163,22.9096 -12.0003,36.9707 31.5156,-22.7884 31.3947,22.7884 -12.0002,-36.9707 31.5156,-22.9096 -38.9098,0 -12.0003,-36.9702 z m -396.6143,29.6978 -15.3938,47.2738 -49.8195,0 40.2434,29.3334 -15.2727,47.274 40.2426,-29.2127 40.2435,29.2127 -15.3944,-47.274 40.3644,-29.3334 -49.819,0 -15.3945,-47.2738 z m 267.1571,0 -15.3944,47.2738 -49.819,0 40.3644,29.3334 -15.3944,47.274 40.2434,-29.2127 40.2435,29.2127 -15.3946,-47.274 40.2434,-29.3334 -49.6979,0 -15.3944,-47.2738 z m -137.0934,18.667 -19.1523,59.0313 -62.0618,0 50.3043,36.4856 -19.2734,59.0313 50.1832,-36.4855 50.3036,36.4855 -19.2726,-59.0313 50.3035,-36.4856 -62.0618,0 -19.2727,-59.0313 z" fill="#ffffff"></path></g></g><g id="SvgjsG1328" featurekey="Ua4uQk-0" transform="matrix(3.517163291024976,0,0,3.517163291024976,115.77940556017276,-8.610579032112472)" fill="#ffffff"><path d="M16.3 6 l0 14 l-3.32 0 l0 -6.76 l-2.86 6.76 l-2.78 0 l-2.82 -6.72 l0 6.72 l-3.32 0 l0 -14 l3.18 0 l4.38 9.72 l4.36 -9.72 l3.18 0 z M26.96 9.56 l3.14 0 l-6.36 14.24 l-3.16 0 l1.92 -4.16 l-4.5 -10.08 l3.14 0 l2.92 6.68 z M46.74 6 l0 9.26 c0 3.7 -3.14 4.98 -5.08 4.98 c-2.24 0 -3.56 -0.86 -4.46 -1.94 l1.92 -2.38 c0.48 0.52 1.32 1.22 2.36 1.22 c0.58 0 2.04 -0.22 2.04 -2.32 l0 -8.82 l3.22 0 z M54.12 9.42 c2.36 0 5.48 1.78 5.48 5.42 c0 3.66 -3.12 5.36 -5.48 5.36 s-5.48 -1.7 -5.48 -5.36 c0 -3.64 3.12 -5.42 5.48 -5.42 z M54.12 12.2 c-1.2 0 -2.42 0.92 -2.42 2.64 c0 1.66 1.22 2.58 2.42 2.58 s2.44 -0.92 2.44 -2.58 c0 -1.72 -1.24 -2.64 -2.44 -2.64 z M67.16 9.42 c2.38 0 5.12 1.78 5.12 5.36 c0 3.72 -2.74 5.42 -5.12 5.42 c-1.6 0 -2.54 -0.88 -2.68 -1.24 l0 1.04 l-3.16 0 l0 -10.4 l0 -3.74 l3.16 0 l0 4.7 c0.14 -0.22 1.08 -1.14 2.68 -1.14 z M66.7 17.42 c1.36 0 2.52 -0.92 2.52 -2.64 c0 -1.66 -1.16 -2.58 -2.52 -2.58 c-1.3 0 -2.36 0.9 -2.36 2.58 c0 1.74 1.06 2.64 2.36 2.64 z"></path></g></svg>